<svg id="Layer_1" xmlns="http://www.w3.org/2000/svg" viewBox="0 0 841.9 595.3"><style>.st0{fill:#caced4}.st1{fill:none}.st2{font-family:&apos;FranklinGothic-Demi&apos;}.st3{font-size:27px}</style><path class="st0" d="M378.7 194.4h15.2c1.4 0 2.3.4 3.3 1.5 2.2 2.4 4.6 4.4 6.8 6.5h-32.7v-56.8c.7 0 1.3-.1 1.9-.1 14.8 0 29.6-.2 44.4.1 10 .2 17.8 5.3 22.6 15.1 4.6 9.5 4.2 19-.7 28.3-.6 1.1-1.3 1.5-2.5 1.5-2.7-.1-5.4 0-8.6 0 1.3-1.4 2.5-2.4 3.4-3.7 4.5-6.4 5.5-13.4 2.4-20.7-3.3-7.7-9.1-12.1-16.8-12.3-12.9-.4-25.7-.1-38.8-.1.1 13.5.1 27 .1 40.7z"/><path class="st0" d="M407.6 157.5c-3.3 3.5-5.8 7.3-6.8 12.1-2.5 12.2 5.7 24.3 17 24.6 12.6.3 25.2.1 37.8.1 1 0 1.6-.2 1.6-1.5-.1-3 0-5.9 0-9.1h-11.7c.4-2.4.8-4.5 1.3-6.8h17.7v25.5c-.6 0-1.2.1-1.8.1-14.7 0-29.3.1-44 0-10-.1-17.6-5.1-22.4-14.6-4.8-9.5-4.4-19.2.7-28.7.6-1.2 1.3-1.7 2.6-1.7 2.6.1 5.3 0 8 0zm57 15.2h-7.4v-14.1c0-.8-.1-1.6 0-2.3.2-2-.5-2.8-2.4-2.7-4.4.1-8.7.1-13.1 0-.8 0-1.7-.6-2.4-1.2-2.4-2.2-4.7-4.5-7-6.7.1 0 .5-.1 1-.1h22.8c4.9 0 8.5 3.9 8.5 9.4v17.7zm-84.8-38.3h12.4v7h-12.4v-7z"/><path class="st1" d="M294.6 222.1h252.6v49H294.6z"/><text transform="translate(325.28 240.124)" class="st0 st2 st3">ED Photography</text></svg>