<?xml version="1.0" encoding="utf-8"?>
<!-- Generator: Adobe Illustrator 21.0.0, SVG Export Plug-In . SVG Version: 6.00 Build 0)  -->
<svg version="1.1" id="Layer_1" xmlns="http://www.w3.org/2000/svg" xmlns:xlink="http://www.w3.org/1999/xlink" x="0px" y="0px"
	 viewBox="0 0 841.9 595.3" style="enable-background:new 0 0 841.9 595.3;" xml:space="preserve">
<style type="text/css">
	.st0{fill:#CACED4;}
	.st1{fill:none;}
	.st2{font-family:'FranklinGothic-Demi';}
	.st3{font-size:27px;}
</style>
<g>
	<path class="st0" d="M378.7,194.4c5.1,0,10.1,0,15.2,0c1.4,0,2.3,0.4,3.3,1.5c2.2,2.4,4.6,4.4,6.8,6.5c-10.7,0-21.6,0-32.7,0
		c0-18.9,0-37.8,0-56.8c0.7,0,1.3-0.1,1.9-0.1c14.8,0,29.6-0.2,44.4,0.1c10,0.2,17.8,5.3,22.6,15.1c4.6,9.5,4.2,19-0.7,28.3
		c-0.6,1.1-1.3,1.5-2.5,1.5c-2.7-0.1-5.4,0-8.6,0c1.3-1.4,2.5-2.4,3.4-3.7c4.5-6.4,5.5-13.4,2.4-20.7c-3.3-7.7-9.1-12.1-16.8-12.3
		c-12.9-0.4-25.7-0.1-38.8-0.1C378.7,167.2,378.7,180.7,378.7,194.4z"/>
	<path class="st0" d="M407.6,157.5c-3.3,3.5-5.8,7.3-6.8,12.1c-2.5,12.2,5.7,24.3,17,24.6c12.6,0.3,25.2,0.1,37.8,0.1
		c1,0,1.6-0.2,1.6-1.5c-0.1-3,0-5.9,0-9.1c-4,0-7.8,0-11.7,0c0.4-2.4,0.8-4.5,1.3-6.8c5.7,0,11.6,0,17.7,0c0,8.4,0,16.8,0,25.5
		c-0.6,0-1.2,0.1-1.8,0.1c-14.7,0-29.3,0.1-44,0c-10-0.1-17.6-5.1-22.4-14.6c-4.8-9.5-4.4-19.2,0.7-28.7c0.6-1.2,1.3-1.7,2.6-1.7
		C402.2,157.6,404.9,157.5,407.6,157.5z"/>
	<path class="st0" d="M464.6,172.7c-2.6,0-4.9,0-7.4,0c0-4.8,0-9.4,0-14.1c0-0.8-0.1-1.6,0-2.3c0.2-2-0.5-2.8-2.4-2.7
		c-4.4,0.1-8.7,0.1-13.1,0c-0.8,0-1.7-0.6-2.4-1.2c-2.4-2.2-4.7-4.5-7-6.7c0.1,0,0.5-0.1,1-0.1c7.6,0,15.2,0,22.8,0
		c4.9,0,8.5,3.9,8.5,9.4C464.6,160.7,464.6,166.6,464.6,172.7z"/>
	<path class="st0" d="M379.8,134.4c4.2,0,8.2,0,12.4,0c0,2.3,0,4.6,0,7c-4.1,0-8.2,0-12.4,0C379.8,139.1,379.8,136.8,379.8,134.4z"
		/>
</g>
<rect x="294.6" y="222.1" class="st1" width="252.6" height="49"/>
<text transform="matrix(1 0 0 1 325.28 240.1237)" class="st0 st2 st3">ED Photography</text>
</svg>
